<mxfile host="app.diagrams.net" modified="2021-03-29T16:36:47.873Z" agent="5.0 (Windows)" etag="qzWN-ZgJieEgZvf3CiFr" version="14.5.3" type="github">
  <diagram id="C5RBs43oDa-KdzZeNtuy" name="Page-1">
    <mxGraphModel dx="1038" dy="575" grid="1" gridSize="10" guides="1" tooltips="1" connect="1" arrows="1" fold="1" page="1" pageScale="1" pageWidth="827" pageHeight="1169" math="0" shadow="0">
      <root>
        <mxCell id="WIyWlLk6GJQsqaUBKTNV-0" />
        <mxCell id="WIyWlLk6GJQsqaUBKTNV-1" parent="WIyWlLk6GJQsqaUBKTNV-0" />
        <mxCell id="yGPGfhlQZTKZrJrrh-Fp-0" value="" style="rounded=1;whiteSpace=wrap;html=1;fillColor=#f5f5f5;strokeColor=#666666;fontColor=#333333;" vertex="1" parent="WIyWlLk6GJQsqaUBKTNV-1">
          <mxGeometry x="30" y="50" width="760" height="500" as="geometry" />
        </mxCell>
        <mxCell id="yGPGfhlQZTKZrJrrh-Fp-1" value="&lt;div align=&quot;left&quot;&gt;&lt;font style=&quot;font-size: 24px&quot;&gt;COVID 19 TRACKER&lt;/font&gt;&lt;/div&gt;" style="text;html=1;strokeColor=none;fillColor=none;align=left;verticalAlign=middle;whiteSpace=wrap;rounded=0;fontSize=22;" vertex="1" parent="WIyWlLk6GJQsqaUBKTNV-1">
          <mxGeometry x="80" y="80" width="240" height="20" as="geometry" />
        </mxCell>
        <mxCell id="yGPGfhlQZTKZrJrrh-Fp-2" value="Worldwide" style="rounded=0;whiteSpace=wrap;html=1;" vertex="1" parent="WIyWlLk6GJQsqaUBKTNV-1">
          <mxGeometry x="340" y="80" width="120" height="20" as="geometry" />
        </mxCell>
        <mxCell id="yGPGfhlQZTKZrJrrh-Fp-3" value="&lt;br&gt;&lt;div align=&quot;left&quot;&gt;Corona Virus Cases&lt;br&gt;&lt;/div&gt;&lt;div align=&quot;left&quot;&gt;+2000&lt;br&gt;&lt;/div&gt;&lt;div align=&quot;left&quot;&gt;1.2 M total&lt;br&gt;&lt;/div&gt;&lt;div align=&quot;justify&quot;&gt;&lt;br&gt;&lt;/div&gt;" style="rounded=1;whiteSpace=wrap;html=1;" vertex="1" parent="WIyWlLk6GJQsqaUBKTNV-1">
          <mxGeometry x="80" y="130" width="120" height="60" as="geometry" />
        </mxCell>
        <mxCell id="yGPGfhlQZTKZrJrrh-Fp-4" value="&lt;br&gt;&lt;div align=&quot;left&quot;&gt;Recoverd&lt;br&gt;+2000&lt;br&gt;1.2 M total&lt;br&gt;&lt;/div&gt;&lt;div align=&quot;left&quot;&gt;&lt;br&gt;&lt;/div&gt;" style="rounded=1;whiteSpace=wrap;html=1;align=left;" vertex="1" parent="WIyWlLk6GJQsqaUBKTNV-1">
          <mxGeometry x="210" y="130" width="120" height="60" as="geometry" />
        </mxCell>
        <mxCell id="yGPGfhlQZTKZrJrrh-Fp-5" value="&lt;br&gt;&lt;div align=&quot;left&quot;&gt;Deaths&lt;br&gt;+2000&lt;br&gt;1.2 M total&lt;br&gt;&lt;/div&gt;&lt;div align=&quot;left&quot;&gt;&lt;br&gt;&lt;/div&gt;" style="rounded=1;whiteSpace=wrap;html=1;align=left;" vertex="1" parent="WIyWlLk6GJQsqaUBKTNV-1">
          <mxGeometry x="340" y="130" width="120" height="60" as="geometry" />
        </mxCell>
        <mxCell id="yGPGfhlQZTKZrJrrh-Fp-8" value="" style="rounded=1;whiteSpace=wrap;html=1;" vertex="1" parent="WIyWlLk6GJQsqaUBKTNV-1">
          <mxGeometry x="80" y="210" width="360" height="230" as="geometry" />
        </mxCell>
        <mxCell id="yGPGfhlQZTKZrJrrh-Fp-9" value="" style="shape=image;html=1;verticalAlign=top;verticalLabelPosition=bottom;labelBackgroundColor=#ffffff;imageAspect=0;aspect=fixed;image=https://cdn4.iconfinder.com/data/icons/small-n-flat/24/map-128.png" vertex="1" parent="WIyWlLk6GJQsqaUBKTNV-1">
          <mxGeometry x="170" y="240" width="160" height="160" as="geometry" />
        </mxCell>
        <mxCell id="yGPGfhlQZTKZrJrrh-Fp-10" value="" style="rounded=1;whiteSpace=wrap;html=1;" vertex="1" parent="WIyWlLk6GJQsqaUBKTNV-1">
          <mxGeometry x="510" y="80" width="220" height="430" as="geometry" />
        </mxCell>
        <mxCell id="yGPGfhlQZTKZrJrrh-Fp-11" value="&lt;div align=&quot;left&quot;&gt;&lt;b&gt;Worldwide New Cases&lt;/b&gt;&lt;br&gt;&lt;/div&gt;" style="text;html=1;strokeColor=none;fillColor=none;align=center;verticalAlign=middle;whiteSpace=wrap;rounded=0;" vertex="1" parent="WIyWlLk6GJQsqaUBKTNV-1">
          <mxGeometry x="520" y="340" width="140" height="20" as="geometry" />
        </mxCell>
        <mxCell id="yGPGfhlQZTKZrJrrh-Fp-12" value="&lt;div align=&quot;left&quot;&gt;&lt;b&gt;Cases by country&lt;/b&gt;&lt;/div&gt;" style="text;html=1;strokeColor=none;fillColor=none;align=left;verticalAlign=middle;whiteSpace=wrap;rounded=0;" vertex="1" parent="WIyWlLk6GJQsqaUBKTNV-1">
          <mxGeometry x="530" y="100" width="110" height="20" as="geometry" />
        </mxCell>
        <mxCell id="yGPGfhlQZTKZrJrrh-Fp-13" value="" style="aspect=fixed;pointerEvents=1;shadow=0;dashed=0;html=1;strokeColor=none;labelPosition=center;verticalLabelPosition=bottom;verticalAlign=top;align=center;fillColor=#00188D;shape=mxgraph.mscae.general.graph" vertex="1" parent="WIyWlLk6GJQsqaUBKTNV-1">
          <mxGeometry x="530" y="370" width="130" height="130" as="geometry" />
        </mxCell>
        <mxCell id="yGPGfhlQZTKZrJrrh-Fp-14" value="" style="shape=table;html=1;whiteSpace=wrap;startSize=0;container=1;collapsible=0;childLayout=tableLayout;columnLines=0;rowLines=0;" vertex="1" parent="WIyWlLk6GJQsqaUBKTNV-1">
          <mxGeometry x="530" y="130" width="180" height="160" as="geometry" />
        </mxCell>
        <mxCell id="yGPGfhlQZTKZrJrrh-Fp-15" value="" style="shape=partialRectangle;html=1;whiteSpace=wrap;collapsible=0;dropTarget=0;pointerEvents=0;fillColor=none;top=0;left=0;bottom=0;right=0;points=[[0,0.5],[1,0.5]];portConstraint=eastwest;" vertex="1" parent="yGPGfhlQZTKZrJrrh-Fp-14">
          <mxGeometry width="180" height="53" as="geometry" />
        </mxCell>
        <mxCell id="yGPGfhlQZTKZrJrrh-Fp-16" value="Value 1" style="shape=partialRectangle;html=1;whiteSpace=wrap;connectable=0;fillColor=none;top=0;left=0;bottom=0;right=0;overflow=hidden;" vertex="1" parent="yGPGfhlQZTKZrJrrh-Fp-15">
          <mxGeometry width="60" height="53" as="geometry" />
        </mxCell>
        <mxCell id="yGPGfhlQZTKZrJrrh-Fp-17" value="Value 2" style="shape=partialRectangle;html=1;whiteSpace=wrap;connectable=0;fillColor=none;top=0;left=0;bottom=0;right=0;overflow=hidden;" vertex="1" parent="yGPGfhlQZTKZrJrrh-Fp-15">
          <mxGeometry x="60" width="60" height="53" as="geometry" />
        </mxCell>
        <mxCell id="yGPGfhlQZTKZrJrrh-Fp-18" value="Value 3" style="shape=partialRectangle;html=1;whiteSpace=wrap;connectable=0;fillColor=none;top=0;left=0;bottom=0;right=0;overflow=hidden;" vertex="1" parent="yGPGfhlQZTKZrJrrh-Fp-15">
          <mxGeometry x="120" width="60" height="53" as="geometry" />
        </mxCell>
        <mxCell id="yGPGfhlQZTKZrJrrh-Fp-19" value="" style="shape=partialRectangle;html=1;whiteSpace=wrap;collapsible=0;dropTarget=0;pointerEvents=0;fillColor=none;top=0;left=0;bottom=0;right=0;points=[[0,0.5],[1,0.5]];portConstraint=eastwest;" vertex="1" parent="yGPGfhlQZTKZrJrrh-Fp-14">
          <mxGeometry y="53" width="180" height="54" as="geometry" />
        </mxCell>
        <mxCell id="yGPGfhlQZTKZrJrrh-Fp-20" value="Value 4" style="shape=partialRectangle;html=1;whiteSpace=wrap;connectable=0;fillColor=none;top=0;left=0;bottom=0;right=0;overflow=hidden;" vertex="1" parent="yGPGfhlQZTKZrJrrh-Fp-19">
          <mxGeometry width="60" height="54" as="geometry" />
        </mxCell>
        <mxCell id="yGPGfhlQZTKZrJrrh-Fp-21" value="Value 5" style="shape=partialRectangle;html=1;whiteSpace=wrap;connectable=0;fillColor=none;top=0;left=0;bottom=0;right=0;overflow=hidden;" vertex="1" parent="yGPGfhlQZTKZrJrrh-Fp-19">
          <mxGeometry x="60" width="60" height="54" as="geometry" />
        </mxCell>
        <mxCell id="yGPGfhlQZTKZrJrrh-Fp-22" value="Value 6" style="shape=partialRectangle;html=1;whiteSpace=wrap;connectable=0;fillColor=none;top=0;left=0;bottom=0;right=0;overflow=hidden;" vertex="1" parent="yGPGfhlQZTKZrJrrh-Fp-19">
          <mxGeometry x="120" width="60" height="54" as="geometry" />
        </mxCell>
        <mxCell id="yGPGfhlQZTKZrJrrh-Fp-23" value="" style="shape=partialRectangle;html=1;whiteSpace=wrap;collapsible=0;dropTarget=0;pointerEvents=0;fillColor=none;top=0;left=0;bottom=0;right=0;points=[[0,0.5],[1,0.5]];portConstraint=eastwest;" vertex="1" parent="yGPGfhlQZTKZrJrrh-Fp-14">
          <mxGeometry y="107" width="180" height="53" as="geometry" />
        </mxCell>
        <mxCell id="yGPGfhlQZTKZrJrrh-Fp-24" value="Value 7" style="shape=partialRectangle;html=1;whiteSpace=wrap;connectable=0;fillColor=none;top=0;left=0;bottom=0;right=0;overflow=hidden;" vertex="1" parent="yGPGfhlQZTKZrJrrh-Fp-23">
          <mxGeometry width="60" height="53" as="geometry" />
        </mxCell>
        <mxCell id="yGPGfhlQZTKZrJrrh-Fp-25" value="Value 8" style="shape=partialRectangle;html=1;whiteSpace=wrap;connectable=0;fillColor=none;top=0;left=0;bottom=0;right=0;overflow=hidden;" vertex="1" parent="yGPGfhlQZTKZrJrrh-Fp-23">
          <mxGeometry x="60" width="60" height="53" as="geometry" />
        </mxCell>
        <mxCell id="yGPGfhlQZTKZrJrrh-Fp-26" value="Value 9" style="shape=partialRectangle;html=1;whiteSpace=wrap;connectable=0;fillColor=none;top=0;left=0;bottom=0;right=0;overflow=hidden;" vertex="1" parent="yGPGfhlQZTKZrJrrh-Fp-23">
          <mxGeometry x="120" width="60" height="53" as="geometry" />
        </mxCell>
      </root>
    </mxGraphModel>
  </diagram>
</mxfile>
